<?xml version="1.0" encoding="UTF-8"?>
<svg width="20px" height="17px" viewBox="0 0 20 17" version="1.1" xmlns="http://www.w3.org/2000/svg" xmlns:xlink="http://www.w3.org/1999/xlink">
    <!-- Generator: sketchtool 49.3 (51167) - http://www.bohemiancoding.com/sketch -->
    <title>D17A3066-D188-4517-8067-E119068C59D8</title>
    <desc>Created with sketchtool.</desc>
    <defs></defs>
    <g id="Dashboard/Feed" stroke="none" stroke-width="1" fill="none" fill-rule="evenodd">
        <g id="Dashboard-v2-Admin" transform="translate(-170.000000, -12.000000)" fill="#FFFFFF">
            <g id="Nav">
                <g id="Shares" transform="translate(144.000000, 0.000000)">
                    <g id="cssymbol" transform="translate(24.000000, 8.000000)">
                        <path d="M7.79772366,18.7378027 C4.56498019,18.5545822 2,15.8750616 2,12.5964577 C2,9.40828803 4.42543134,6.78660817 7.5317801,6.47593208 C9.06571103,4.94594117 11.1824698,4 13.5201649,4 C18.2034485,4 22,7.79655149 22,12.4798351 C22,17.1631187 18.2034485,20.9596702 13.5201649,20.9596702 C11.3147572,20.9596702 9.30598825,20.1177592 7.79772366,18.7378027 Z M7.79772366,18.7378027 C7.91475035,18.7444354 8.03265213,18.7477967 8.15133898,18.7477967 C11.5486297,18.7477967 14.302678,15.9937484 14.302678,12.5964577 C14.302678,9.19916702 11.5486297,6.44511875 8.15133898,6.44511875 C7.94221797,6.44511875 7.73553424,6.45555397 7.5317801,6.47593208 C5.99266979,8.01108908 5.04032982,10.1342466 5.04032982,12.4798351 C5.04032982,14.9577109 6.10311983,17.1873589 7.79772366,18.7378027 Z" id="cs-symbol"></path>
                    </g>
                </g>
            </g>
        </g>
    </g>
</svg>